%TF.GenerationSoftware,KiCad,Pcbnew,6.0.11+dfsg-1*%
%TF.CreationDate,2024-01-30T14:39:01+01:00*%
%TF.ProjectId,Langstone-Soundcard,4c616e67-7374-46f6-9e65-2d536f756e64,rev?*%
%TF.SameCoordinates,Original*%
%TF.FileFunction,Copper,L2,Bot*%
%TF.FilePolarity,Positive*%
%FSLAX46Y46*%
G04 Gerber Fmt 4.6, Leading zero omitted, Abs format (unit mm)*
G04 Created by KiCad (PCBNEW 6.0.11+dfsg-1) date 2024-01-30 14:39:01*
%MOMM*%
%LPD*%
G01*
G04 APERTURE LIST*
G04 Aperture macros list*
%AMRoundRect*
0 Rectangle with rounded corners*
0 $1 Rounding radius*
0 $2 $3 $4 $5 $6 $7 $8 $9 X,Y pos of 4 corners*
0 Add a 4 corners polygon primitive as box body*
4,1,4,$2,$3,$4,$5,$6,$7,$8,$9,$2,$3,0*
0 Add four circle primitives for the rounded corners*
1,1,$1+$1,$2,$3*
1,1,$1+$1,$4,$5*
1,1,$1+$1,$6,$7*
1,1,$1+$1,$8,$9*
0 Add four rect primitives between the rounded corners*
20,1,$1+$1,$2,$3,$4,$5,0*
20,1,$1+$1,$4,$5,$6,$7,0*
20,1,$1+$1,$6,$7,$8,$9,0*
20,1,$1+$1,$8,$9,$2,$3,0*%
G04 Aperture macros list end*
%TA.AperFunction,ComponentPad*%
%ADD10RoundRect,0.250000X0.725000X-0.600000X0.725000X0.600000X-0.725000X0.600000X-0.725000X-0.600000X0*%
%TD*%
%TA.AperFunction,ComponentPad*%
%ADD11O,1.950000X1.700000*%
%TD*%
%TA.AperFunction,ComponentPad*%
%ADD12R,1.600000X1.600000*%
%TD*%
%TA.AperFunction,ComponentPad*%
%ADD13O,1.600000X1.600000*%
%TD*%
%TA.AperFunction,ViaPad*%
%ADD14C,0.800000*%
%TD*%
%TA.AperFunction,Conductor*%
%ADD15C,0.250000*%
%TD*%
G04 APERTURE END LIST*
D10*
%TO.P,J1,1,Pin_1*%
%TO.N,GND*%
X105225000Y-106165000D03*
D11*
%TO.P,J1,2,Pin_2*%
%TO.N,Net-(C2-Pad2)*%
X105225000Y-103665000D03*
%TO.P,J1,3,Pin_3*%
%TO.N,Net-(C1-Pad2)*%
X105225000Y-101165000D03*
%TD*%
D10*
%TO.P,J3,1,Pin_1*%
%TO.N,GND*%
X146907500Y-106565000D03*
D11*
%TO.P,J3,2,Pin_2*%
%TO.N,Net-(C11-Pad2)*%
X146907500Y-104065000D03*
%TO.P,J3,3,Pin_3*%
%TO.N,Net-(C10-Pad2)*%
X146907500Y-101565000D03*
%TD*%
D10*
%TO.P,J2,1,Pin_1*%
%TO.N,GND*%
X104700000Y-74355000D03*
D11*
%TO.P,J2,2,Pin_2*%
%TO.N,Net-(J2-Pad2)*%
X104700000Y-71855000D03*
%TO.P,J2,3,Pin_3*%
%TO.N,Net-(J2-Pad3)*%
X104700000Y-69355000D03*
%TO.P,J2,4,Pin_4*%
%TO.N,Net-(J2-Pad4)*%
X104700000Y-66855000D03*
%TD*%
D12*
%TO.P,SW1,1*%
%TO.N,Net-(R1-Pad2)*%
X124317500Y-73160000D03*
D13*
%TO.P,SW1,2*%
%TO.N,Net-(R2-Pad2)*%
X124317500Y-75700000D03*
%TO.P,SW1,3*%
%TO.N,Net-(R3-Pad2)*%
X124317500Y-78240000D03*
%TO.P,SW1,4*%
%TO.N,Net-(SW1-Pad4)*%
X131937500Y-78240000D03*
%TO.P,SW1,5*%
%TO.N,Net-(SW1-Pad5)*%
X131937500Y-75700000D03*
%TO.P,SW1,6*%
%TO.N,Net-(SW1-Pad6)*%
X131937500Y-73160000D03*
%TD*%
D14*
%TO.N,Net-(C4-Pad2)*%
X122174000Y-88646000D03*
X122174000Y-93726000D03*
%TO.N,Net-(R1-Pad1)*%
X127254000Y-83566000D03*
X131685000Y-83679000D03*
%TO.N,GND*%
X137160000Y-83312000D03*
X113538000Y-89916000D03*
X113284000Y-107950000D03*
X113538000Y-96012000D03*
X142695000Y-94795000D03*
X126220000Y-95740000D03*
X133604000Y-95758000D03*
X142748000Y-90678000D03*
X122575000Y-107803000D03*
X120650000Y-91821000D03*
X130156000Y-91840000D03*
%TD*%
D15*
%TO.N,Net-(C4-Pad2)*%
X122174000Y-88646000D02*
X122174000Y-93726000D01*
%TO.N,Net-(R1-Pad1)*%
X131572000Y-83566000D02*
X131685000Y-83679000D01*
X127254000Y-83566000D02*
X131572000Y-83566000D01*
%TD*%
%TA.AperFunction,Conductor*%
%TO.N,GND*%
G36*
X158183621Y-54503502D02*
G01*
X158230114Y-54557158D01*
X158241500Y-54609500D01*
X158241500Y-120015500D01*
X158221498Y-120083621D01*
X158167842Y-120130114D01*
X158115500Y-120141500D01*
X92709500Y-120141500D01*
X92641379Y-120121498D01*
X92594886Y-120067842D01*
X92583500Y-120015500D01*
X92583500Y-114000000D01*
X94736445Y-114000000D01*
X94756651Y-114385559D01*
X94817049Y-114766894D01*
X94916976Y-115139826D01*
X95055337Y-115500270D01*
X95230618Y-115844277D01*
X95440896Y-116168078D01*
X95683869Y-116468125D01*
X95956875Y-116741131D01*
X96256922Y-116984104D01*
X96580722Y-117194382D01*
X96583656Y-117195877D01*
X96583663Y-117195881D01*
X96921790Y-117368165D01*
X96924730Y-117369663D01*
X97285174Y-117508024D01*
X97658106Y-117607951D01*
X97860643Y-117640030D01*
X98036193Y-117667835D01*
X98036201Y-117667836D01*
X98039441Y-117668349D01*
X98425000Y-117688555D01*
X98810559Y-117668349D01*
X98813799Y-117667836D01*
X98813807Y-117667835D01*
X98989357Y-117640030D01*
X99191894Y-117607951D01*
X99564826Y-117508024D01*
X99925270Y-117369663D01*
X99928210Y-117368165D01*
X100266337Y-117195881D01*
X100266344Y-117195877D01*
X100269278Y-117194382D01*
X100593078Y-116984104D01*
X100893125Y-116741131D01*
X101166131Y-116468125D01*
X101409104Y-116168078D01*
X101619382Y-115844277D01*
X101794663Y-115500270D01*
X101933024Y-115139826D01*
X102032951Y-114766894D01*
X102093349Y-114385559D01*
X102113555Y-114000000D01*
X148711445Y-114000000D01*
X148731651Y-114385559D01*
X148792049Y-114766894D01*
X148891976Y-115139826D01*
X149030337Y-115500270D01*
X149205618Y-115844277D01*
X149415896Y-116168078D01*
X149658869Y-116468125D01*
X149931875Y-116741131D01*
X150231922Y-116984104D01*
X150555722Y-117194382D01*
X150558656Y-117195877D01*
X150558663Y-117195881D01*
X150896790Y-117368165D01*
X150899730Y-117369663D01*
X151260174Y-117508024D01*
X151633106Y-117607951D01*
X151835643Y-117640030D01*
X152011193Y-117667835D01*
X152011201Y-117667836D01*
X152014441Y-117668349D01*
X152400000Y-117688555D01*
X152785559Y-117668349D01*
X152788799Y-117667836D01*
X152788807Y-117667835D01*
X152964357Y-117640030D01*
X153166894Y-117607951D01*
X153539826Y-117508024D01*
X153900270Y-117369663D01*
X153903210Y-117368165D01*
X154241337Y-117195881D01*
X154241344Y-117195877D01*
X154244278Y-117194382D01*
X154568078Y-116984104D01*
X154868125Y-116741131D01*
X155141131Y-116468125D01*
X155384104Y-116168078D01*
X155594382Y-115844277D01*
X155769663Y-115500270D01*
X155908024Y-115139826D01*
X156007951Y-114766894D01*
X156068349Y-114385559D01*
X156088555Y-114000000D01*
X156068349Y-113614441D01*
X156007951Y-113233106D01*
X155908024Y-112860174D01*
X155769663Y-112499730D01*
X155752858Y-112466748D01*
X155595881Y-112158664D01*
X155595877Y-112158657D01*
X155594382Y-112155723D01*
X155384104Y-111831922D01*
X155141131Y-111531875D01*
X154868125Y-111258869D01*
X154568078Y-111015896D01*
X154244278Y-110805618D01*
X154241344Y-110804123D01*
X154241337Y-110804119D01*
X153903210Y-110631835D01*
X153900270Y-110630337D01*
X153539826Y-110491976D01*
X153166894Y-110392049D01*
X152964357Y-110359970D01*
X152788807Y-110332165D01*
X152788799Y-110332164D01*
X152785559Y-110331651D01*
X152400000Y-110311445D01*
X152014441Y-110331651D01*
X152011201Y-110332164D01*
X152011193Y-110332165D01*
X151835643Y-110359970D01*
X151633106Y-110392049D01*
X151260174Y-110491976D01*
X150899730Y-110630337D01*
X150896790Y-110631835D01*
X150558664Y-110804119D01*
X150558657Y-110804123D01*
X150555723Y-110805618D01*
X150231922Y-111015896D01*
X149931875Y-111258869D01*
X149658869Y-111531875D01*
X149415896Y-111831922D01*
X149205618Y-112155723D01*
X149204123Y-112158657D01*
X149204119Y-112158664D01*
X149047142Y-112466748D01*
X149030337Y-112499730D01*
X148891976Y-112860174D01*
X148792049Y-113233106D01*
X148731651Y-113614441D01*
X148712908Y-113972077D01*
X148711445Y-114000000D01*
X102113555Y-114000000D01*
X102093349Y-113614441D01*
X102032951Y-113233106D01*
X101933024Y-112860174D01*
X101794663Y-112499730D01*
X101777858Y-112466748D01*
X101620881Y-112158664D01*
X101620877Y-112158657D01*
X101619382Y-112155723D01*
X101409104Y-111831922D01*
X101166131Y-111531875D01*
X100893125Y-111258869D01*
X100593078Y-111015896D01*
X100269278Y-110805618D01*
X100266344Y-110804123D01*
X100266337Y-110804119D01*
X99928210Y-110631835D01*
X99925270Y-110630337D01*
X99564826Y-110491976D01*
X99191894Y-110392049D01*
X98989357Y-110359970D01*
X98813807Y-110332165D01*
X98813799Y-110332164D01*
X98810559Y-110331651D01*
X98425000Y-110311445D01*
X98039441Y-110331651D01*
X98036201Y-110332164D01*
X98036193Y-110332165D01*
X97860643Y-110359970D01*
X97658106Y-110392049D01*
X97285174Y-110491976D01*
X96924730Y-110630337D01*
X96921790Y-110631835D01*
X96583664Y-110804119D01*
X96583657Y-110804123D01*
X96580723Y-110805618D01*
X96256922Y-111015896D01*
X95956875Y-111258869D01*
X95683869Y-111531875D01*
X95440896Y-111831922D01*
X95230618Y-112155723D01*
X95229123Y-112158657D01*
X95229119Y-112158664D01*
X95072142Y-112466748D01*
X95055337Y-112499730D01*
X94916976Y-112860174D01*
X94817049Y-113233106D01*
X94756651Y-113614441D01*
X94737908Y-113972077D01*
X94736445Y-114000000D01*
X92583500Y-114000000D01*
X92583500Y-106812095D01*
X103742001Y-106812095D01*
X103742338Y-106818614D01*
X103752257Y-106914206D01*
X103755149Y-106927600D01*
X103806588Y-107081784D01*
X103812761Y-107094962D01*
X103898063Y-107232807D01*
X103907099Y-107244208D01*
X104021829Y-107358739D01*
X104033240Y-107367751D01*
X104171243Y-107452816D01*
X104184424Y-107458963D01*
X104338710Y-107510138D01*
X104352086Y-107513005D01*
X104446438Y-107522672D01*
X104452854Y-107523000D01*
X104952885Y-107523000D01*
X104968124Y-107518525D01*
X104969329Y-107517135D01*
X104971000Y-107509452D01*
X104971000Y-107504884D01*
X105479000Y-107504884D01*
X105483475Y-107520123D01*
X105484865Y-107521328D01*
X105492548Y-107522999D01*
X105997095Y-107522999D01*
X106003614Y-107522662D01*
X106099206Y-107512743D01*
X106112600Y-107509851D01*
X106266784Y-107458412D01*
X106279962Y-107452239D01*
X106417807Y-107366937D01*
X106429208Y-107357901D01*
X106543739Y-107243171D01*
X106552751Y-107231760D01*
X106564872Y-107212095D01*
X145424501Y-107212095D01*
X145424838Y-107218614D01*
X145434757Y-107314206D01*
X145437649Y-107327600D01*
X145489088Y-107481784D01*
X145495261Y-107494962D01*
X145580563Y-107632807D01*
X145589599Y-107644208D01*
X145704329Y-107758739D01*
X145715740Y-107767751D01*
X145853743Y-107852816D01*
X145866924Y-107858963D01*
X146021210Y-107910138D01*
X146034586Y-107913005D01*
X146128938Y-107922672D01*
X146135354Y-107923000D01*
X146635385Y-107923000D01*
X146650624Y-107918525D01*
X146651829Y-107917135D01*
X146653500Y-107909452D01*
X146653500Y-107904884D01*
X147161500Y-107904884D01*
X147165975Y-107920123D01*
X147167365Y-107921328D01*
X147175048Y-107922999D01*
X147679595Y-107922999D01*
X147686114Y-107922662D01*
X147781706Y-107912743D01*
X147795100Y-107909851D01*
X147949284Y-107858412D01*
X147962462Y-107852239D01*
X148100307Y-107766937D01*
X148111708Y-107757901D01*
X148226239Y-107643171D01*
X148235251Y-107631760D01*
X148320316Y-107493757D01*
X148326463Y-107480576D01*
X148377638Y-107326290D01*
X148380505Y-107312914D01*
X148390172Y-107218562D01*
X148390500Y-107212146D01*
X148390500Y-106837115D01*
X148386025Y-106821876D01*
X148384635Y-106820671D01*
X148376952Y-106819000D01*
X147179615Y-106819000D01*
X147164376Y-106823475D01*
X147163171Y-106824865D01*
X147161500Y-106832548D01*
X147161500Y-107904884D01*
X146653500Y-107904884D01*
X146653500Y-106837115D01*
X146649025Y-106821876D01*
X146647635Y-106820671D01*
X146639952Y-106819000D01*
X145442616Y-106819000D01*
X145427377Y-106823475D01*
X145426172Y-106824865D01*
X145424501Y-106832548D01*
X145424501Y-107212095D01*
X106564872Y-107212095D01*
X106637816Y-107093757D01*
X106643963Y-107080576D01*
X106695138Y-106926290D01*
X106698005Y-106912914D01*
X106707672Y-106818562D01*
X106708000Y-106812146D01*
X106708000Y-106437115D01*
X106703525Y-106421876D01*
X106702135Y-106420671D01*
X106694452Y-106419000D01*
X105497115Y-106419000D01*
X105481876Y-106423475D01*
X105480671Y-106424865D01*
X105479000Y-106432548D01*
X105479000Y-107504884D01*
X104971000Y-107504884D01*
X104971000Y-106437115D01*
X104966525Y-106421876D01*
X104965135Y-106420671D01*
X104957452Y-106419000D01*
X103760116Y-106419000D01*
X103744877Y-106423475D01*
X103743672Y-106424865D01*
X103742001Y-106432548D01*
X103742001Y-106812095D01*
X92583500Y-106812095D01*
X92583500Y-103600774D01*
X103738102Y-103600774D01*
X103746751Y-103831158D01*
X103794093Y-104056791D01*
X103878776Y-104271221D01*
X103998377Y-104468317D01*
X104001874Y-104472347D01*
X104097637Y-104582704D01*
X104149477Y-104642445D01*
X104153608Y-104645832D01*
X104185529Y-104672006D01*
X104225524Y-104730666D01*
X104227455Y-104801636D01*
X104190710Y-104862384D01*
X104171941Y-104876584D01*
X104032193Y-104963063D01*
X104020792Y-104972099D01*
X103906261Y-105086829D01*
X103897249Y-105098240D01*
X103812184Y-105236243D01*
X103806037Y-105249424D01*
X103754862Y-105403710D01*
X103751995Y-105417086D01*
X103742328Y-105511438D01*
X103742000Y-105517855D01*
X103742000Y-105892885D01*
X103746475Y-105908124D01*
X103747865Y-105909329D01*
X103755548Y-105911000D01*
X106689884Y-105911000D01*
X106705123Y-105906525D01*
X106706328Y-105905135D01*
X106707999Y-105897452D01*
X106707999Y-105517905D01*
X106707662Y-105511386D01*
X106697743Y-105415794D01*
X106694851Y-105402400D01*
X106643412Y-105248216D01*
X106637239Y-105235038D01*
X106551937Y-105097193D01*
X106542901Y-105085792D01*
X106428171Y-104971261D01*
X106416757Y-104962247D01*
X106277287Y-104876277D01*
X106229793Y-104823505D01*
X106218369Y-104753434D01*
X106246643Y-104688310D01*
X106256430Y-104677847D01*
X106268581Y-104666256D01*
X106371135Y-104568424D01*
X106508754Y-104383458D01*
X106613240Y-104177949D01*
X106630025Y-104123895D01*
X106668255Y-104000774D01*
X145420602Y-104000774D01*
X145429251Y-104231158D01*
X145476593Y-104456791D01*
X145561276Y-104671221D01*
X145564043Y-104675780D01*
X145564044Y-104675783D01*
X145571646Y-104688310D01*
X145680877Y-104868317D01*
X145684374Y-104872347D01*
X145802886Y-105008920D01*
X145831977Y-105042445D01*
X145836108Y-105045832D01*
X145868029Y-105072006D01*
X145908024Y-105130666D01*
X145909955Y-105201636D01*
X145873210Y-105262384D01*
X145854441Y-105276584D01*
X145714693Y-105363063D01*
X145703292Y-105372099D01*
X145588761Y-105486829D01*
X145579749Y-105498240D01*
X145494684Y-105636243D01*
X145488537Y-105649424D01*
X145437362Y-105803710D01*
X145434495Y-105817086D01*
X145424828Y-105911438D01*
X145424500Y-105917855D01*
X145424500Y-106292885D01*
X145428975Y-106308124D01*
X145430365Y-106309329D01*
X145438048Y-106311000D01*
X148372384Y-106311000D01*
X148387623Y-106306525D01*
X148388828Y-106305135D01*
X148390499Y-106297452D01*
X148390499Y-105917905D01*
X148390162Y-105911386D01*
X148380243Y-105815794D01*
X148377351Y-105802400D01*
X148325912Y-105648216D01*
X148319739Y-105635038D01*
X148234437Y-105497193D01*
X148225401Y-105485792D01*
X148110671Y-105371261D01*
X148099257Y-105362247D01*
X147959787Y-105276277D01*
X147912293Y-105223505D01*
X147900869Y-105153434D01*
X147929143Y-105088310D01*
X147938930Y-105077847D01*
X147972491Y-105045832D01*
X148053635Y-104968424D01*
X148191254Y-104783458D01*
X148219675Y-104727559D01*
X148250842Y-104666256D01*
X148295740Y-104577949D01*
X148297556Y-104572103D01*
X148362524Y-104362871D01*
X148364107Y-104357773D01*
X148374974Y-104275783D01*
X148393698Y-104134511D01*
X148393698Y-104134506D01*
X148394398Y-104129226D01*
X148385749Y-103898842D01*
X148338407Y-103673209D01*
X148253724Y-103458779D01*
X148134123Y-103261683D01*
X148047255Y-103161576D01*
X147986523Y-103091588D01*
X147986521Y-103091586D01*
X147983023Y-103087555D01*
X147941470Y-103053484D01*
X147808873Y-102944760D01*
X147808867Y-102944756D01*
X147804745Y-102941376D01*
X147773250Y-102923448D01*
X147723945Y-102872368D01*
X147710083Y-102802738D01*
X147736066Y-102736667D01*
X147765216Y-102709427D01*
X147796116Y-102688624D01*
X147886819Y-102627559D01*
X147913150Y-102602441D01*
X147998969Y-102520573D01*
X148053635Y-102468424D01*
X148084261Y-102427262D01*
X148188068Y-102287740D01*
X148191254Y-102283458D01*
X148218160Y-102230539D01*
X148250842Y-102166256D01*
X148295740Y-102077949D01*
X148297556Y-102072103D01*
X148362524Y-101862871D01*
X148364107Y-101857773D01*
X148374974Y-101775783D01*
X148393698Y-101634511D01*
X148393698Y-101634506D01*
X148394398Y-101629226D01*
X148385749Y-101398842D01*
X148338407Y-101173209D01*
X148253724Y-100958779D01*
X148134123Y-100761683D01*
X148047255Y-100661576D01*
X147986523Y-100591588D01*
X147986521Y-100591586D01*
X147983023Y-100587555D01*
X147941470Y-100553484D01*
X147808873Y-100444760D01*
X147808867Y-100444756D01*
X147804745Y-100441376D01*
X147800109Y-100438737D01*
X147800106Y-100438735D01*
X147609029Y-100329968D01*
X147604386Y-100327325D01*
X147387675Y-100248663D01*
X147382426Y-100247714D01*
X147382423Y-100247713D01*
X147164892Y-100208377D01*
X147164885Y-100208376D01*
X147160808Y-100207639D01*
X147143086Y-100206803D01*
X147138144Y-100206570D01*
X147138137Y-100206570D01*
X147136656Y-100206500D01*
X146724610Y-100206500D01*
X146657691Y-100212178D01*
X146558091Y-100220629D01*
X146558087Y-100220630D01*
X146552780Y-100221080D01*
X146547625Y-100222418D01*
X146547619Y-100222419D01*
X146334797Y-100277657D01*
X146334793Y-100277658D01*
X146329628Y-100278999D01*
X146324762Y-100281191D01*
X146324759Y-100281192D01*
X146216480Y-100329968D01*
X146119425Y-100373688D01*
X145928181Y-100502441D01*
X145761365Y-100661576D01*
X145623746Y-100846542D01*
X145519260Y-101052051D01*
X145517678Y-101057145D01*
X145517677Y-101057148D01*
X145465901Y-101223895D01*
X145450893Y-101272227D01*
X145450192Y-101277516D01*
X145425626Y-101462871D01*
X145420602Y-101500774D01*
X145429251Y-101731158D01*
X145476593Y-101956791D01*
X145561276Y-102171221D01*
X145564043Y-102175780D01*
X145564044Y-102175783D01*
X145631982Y-102287740D01*
X145680877Y-102368317D01*
X145684374Y-102372347D01*
X145812998Y-102520573D01*
X145831977Y-102542445D01*
X145836108Y-102545832D01*
X146006127Y-102685240D01*
X146006133Y-102685244D01*
X146010255Y-102688624D01*
X146041750Y-102706552D01*
X146091055Y-102757632D01*
X146104917Y-102827262D01*
X146078934Y-102893333D01*
X146049784Y-102920573D01*
X145928181Y-103002441D01*
X145761365Y-103161576D01*
X145623746Y-103346542D01*
X145519260Y-103552051D01*
X145517678Y-103557145D01*
X145517677Y-103557148D01*
X145465901Y-103723895D01*
X145450893Y-103772227D01*
X145450192Y-103777516D01*
X145425626Y-103962871D01*
X145420602Y-104000774D01*
X106668255Y-104000774D01*
X106680024Y-103962871D01*
X106681607Y-103957773D01*
X106690109Y-103893623D01*
X106711198Y-103734511D01*
X106711198Y-103734506D01*
X106711898Y-103729226D01*
X106703249Y-103498842D01*
X106655907Y-103273209D01*
X106571224Y-103058779D01*
X106502036Y-102944760D01*
X106454390Y-102866243D01*
X106451623Y-102861683D01*
X106364755Y-102761576D01*
X106304023Y-102691588D01*
X106304021Y-102691586D01*
X106300523Y-102687555D01*
X106227353Y-102627559D01*
X106126373Y-102544760D01*
X106126367Y-102544756D01*
X106122245Y-102541376D01*
X106090750Y-102523448D01*
X106041445Y-102472368D01*
X106027583Y-102402738D01*
X106053566Y-102336667D01*
X106082716Y-102309427D01*
X106128352Y-102278703D01*
X106204319Y-102227559D01*
X106371135Y-102068424D01*
X106508754Y-101883458D01*
X106613240Y-101677949D01*
X106630025Y-101623895D01*
X106680024Y-101462871D01*
X106681607Y-101457773D01*
X106690109Y-101393623D01*
X106711198Y-101234511D01*
X106711198Y-101234506D01*
X106711898Y-101229226D01*
X106703249Y-100998842D01*
X106655907Y-100773209D01*
X106571224Y-100558779D01*
X106502036Y-100444760D01*
X106454390Y-100366243D01*
X106451623Y-100361683D01*
X106364755Y-100261576D01*
X106304023Y-100191588D01*
X106304021Y-100191586D01*
X106300523Y-100187555D01*
X106258970Y-100153484D01*
X106126373Y-100044760D01*
X106126367Y-100044756D01*
X106122245Y-100041376D01*
X106117609Y-100038737D01*
X106117606Y-100038735D01*
X105926529Y-99929968D01*
X105921886Y-99927325D01*
X105705175Y-99848663D01*
X105699926Y-99847714D01*
X105699923Y-99847713D01*
X105482392Y-99808377D01*
X105482385Y-99808376D01*
X105478308Y-99807639D01*
X105460586Y-99806803D01*
X105455644Y-99806570D01*
X105455637Y-99806570D01*
X105454156Y-99806500D01*
X105042110Y-99806500D01*
X104975191Y-99812178D01*
X104875591Y-99820629D01*
X104875587Y-99820630D01*
X104870280Y-99821080D01*
X104865125Y-99822418D01*
X104865119Y-99822419D01*
X104652297Y-99877657D01*
X104652293Y-99877658D01*
X104647128Y-99878999D01*
X104642262Y-99881191D01*
X104642259Y-99881192D01*
X104533980Y-99929968D01*
X104436925Y-99973688D01*
X104245681Y-100102441D01*
X104078865Y-100261576D01*
X103941246Y-100446542D01*
X103938830Y-100451293D01*
X103938828Y-100451297D01*
X103910954Y-100506122D01*
X103836760Y-100652051D01*
X103835178Y-100657145D01*
X103835177Y-100657148D01*
X103777698Y-100842260D01*
X103768393Y-100872227D01*
X103767692Y-100877516D01*
X103744560Y-101052051D01*
X103738102Y-101100774D01*
X103746751Y-101331158D01*
X103794093Y-101556791D01*
X103878776Y-101771221D01*
X103998377Y-101968317D01*
X104001874Y-101972347D01*
X104097637Y-102082704D01*
X104149477Y-102142445D01*
X104153608Y-102145832D01*
X104323627Y-102285240D01*
X104323633Y-102285244D01*
X104327755Y-102288624D01*
X104359250Y-102306552D01*
X104408555Y-102357632D01*
X104422417Y-102427262D01*
X104396434Y-102493333D01*
X104367284Y-102520573D01*
X104245681Y-102602441D01*
X104241824Y-102606120D01*
X104241822Y-102606122D01*
X104216227Y-102630539D01*
X104078865Y-102761576D01*
X104075682Y-102765854D01*
X104039885Y-102813967D01*
X103941246Y-102946542D01*
X103938830Y-102951293D01*
X103938828Y-102951297D01*
X103910954Y-103006122D01*
X103836760Y-103152051D01*
X103835178Y-103157145D01*
X103835177Y-103157148D01*
X103777698Y-103342260D01*
X103768393Y-103372227D01*
X103767692Y-103377516D01*
X103744560Y-103552051D01*
X103738102Y-103600774D01*
X92583500Y-103600774D01*
X92583500Y-93726000D01*
X121260496Y-93726000D01*
X121280458Y-93915928D01*
X121339473Y-94097556D01*
X121434960Y-94262944D01*
X121562747Y-94404866D01*
X121717248Y-94517118D01*
X121723276Y-94519802D01*
X121723278Y-94519803D01*
X121885681Y-94592109D01*
X121891712Y-94594794D01*
X121985113Y-94614647D01*
X122072056Y-94633128D01*
X122072061Y-94633128D01*
X122078513Y-94634500D01*
X122269487Y-94634500D01*
X122275939Y-94633128D01*
X122275944Y-94633128D01*
X122362887Y-94614647D01*
X122456288Y-94594794D01*
X122462319Y-94592109D01*
X122624722Y-94519803D01*
X122624724Y-94519802D01*
X122630752Y-94517118D01*
X122785253Y-94404866D01*
X122913040Y-94262944D01*
X123008527Y-94097556D01*
X123067542Y-93915928D01*
X123087504Y-93726000D01*
X123067542Y-93536072D01*
X123008527Y-93354444D01*
X122913040Y-93189056D01*
X122839863Y-93107785D01*
X122809147Y-93043779D01*
X122807500Y-93023476D01*
X122807500Y-89348524D01*
X122827502Y-89280403D01*
X122839858Y-89264221D01*
X122913040Y-89182944D01*
X123008527Y-89017556D01*
X123067542Y-88835928D01*
X123087504Y-88646000D01*
X123067542Y-88456072D01*
X123008527Y-88274444D01*
X122913040Y-88109056D01*
X122785253Y-87967134D01*
X122630752Y-87854882D01*
X122624724Y-87852198D01*
X122624722Y-87852197D01*
X122462319Y-87779891D01*
X122462318Y-87779891D01*
X122456288Y-87777206D01*
X122362887Y-87757353D01*
X122275944Y-87738872D01*
X122275939Y-87738872D01*
X122269487Y-87737500D01*
X122078513Y-87737500D01*
X122072061Y-87738872D01*
X122072056Y-87738872D01*
X121985113Y-87757353D01*
X121891712Y-87777206D01*
X121885682Y-87779891D01*
X121885681Y-87779891D01*
X121723278Y-87852197D01*
X121723276Y-87852198D01*
X121717248Y-87854882D01*
X121562747Y-87967134D01*
X121434960Y-88109056D01*
X121339473Y-88274444D01*
X121280458Y-88456072D01*
X121260496Y-88646000D01*
X121280458Y-88835928D01*
X121339473Y-89017556D01*
X121434960Y-89182944D01*
X121508137Y-89264215D01*
X121538853Y-89328221D01*
X121540500Y-89348524D01*
X121540500Y-93023476D01*
X121520498Y-93091597D01*
X121508142Y-93107779D01*
X121434960Y-93189056D01*
X121339473Y-93354444D01*
X121280458Y-93536072D01*
X121260496Y-93726000D01*
X92583500Y-93726000D01*
X92583500Y-83566000D01*
X126340496Y-83566000D01*
X126360458Y-83755928D01*
X126419473Y-83937556D01*
X126514960Y-84102944D01*
X126519378Y-84107851D01*
X126519379Y-84107852D01*
X126619909Y-84219502D01*
X126642747Y-84244866D01*
X126797248Y-84357118D01*
X126803276Y-84359802D01*
X126803278Y-84359803D01*
X126807649Y-84361749D01*
X126971712Y-84434794D01*
X127065112Y-84454647D01*
X127152056Y-84473128D01*
X127152061Y-84473128D01*
X127158513Y-84474500D01*
X127349487Y-84474500D01*
X127355939Y-84473128D01*
X127355944Y-84473128D01*
X127442888Y-84454647D01*
X127536288Y-84434794D01*
X127700351Y-84361749D01*
X127704722Y-84359803D01*
X127704724Y-84359802D01*
X127710752Y-84357118D01*
X127865253Y-84244866D01*
X127869668Y-84239963D01*
X127874580Y-84235540D01*
X127875705Y-84236789D01*
X127929014Y-84203949D01*
X127962200Y-84199500D01*
X130875056Y-84199500D01*
X130943177Y-84219502D01*
X130968690Y-84241188D01*
X131073747Y-84357866D01*
X131228248Y-84470118D01*
X131234276Y-84472802D01*
X131234278Y-84472803D01*
X131238090Y-84474500D01*
X131402712Y-84547794D01*
X131496112Y-84567647D01*
X131583056Y-84586128D01*
X131583061Y-84586128D01*
X131589513Y-84587500D01*
X131780487Y-84587500D01*
X131786939Y-84586128D01*
X131786944Y-84586128D01*
X131873888Y-84567647D01*
X131967288Y-84547794D01*
X132131910Y-84474500D01*
X132135722Y-84472803D01*
X132135724Y-84472802D01*
X132141752Y-84470118D01*
X132296253Y-84357866D01*
X132397999Y-84244866D01*
X132419621Y-84220852D01*
X132419622Y-84220851D01*
X132424040Y-84215944D01*
X132519527Y-84050556D01*
X132578542Y-83868928D01*
X132591109Y-83749365D01*
X132597814Y-83685565D01*
X132598504Y-83679000D01*
X132578542Y-83489072D01*
X132519527Y-83307444D01*
X132424040Y-83142056D01*
X132322295Y-83029056D01*
X132300675Y-83005045D01*
X132300674Y-83005044D01*
X132296253Y-83000134D01*
X132141752Y-82887882D01*
X132135724Y-82885198D01*
X132135722Y-82885197D01*
X131973319Y-82812891D01*
X131973318Y-82812891D01*
X131967288Y-82810206D01*
X131873888Y-82790353D01*
X131786944Y-82771872D01*
X131786939Y-82771872D01*
X131780487Y-82770500D01*
X131589513Y-82770500D01*
X131583061Y-82771872D01*
X131583056Y-82771872D01*
X131496112Y-82790353D01*
X131402712Y-82810206D01*
X131396682Y-82812891D01*
X131396681Y-82812891D01*
X131234278Y-82885197D01*
X131234276Y-82885198D01*
X131228248Y-82887882D01*
X131222907Y-82891762D01*
X131222906Y-82891763D01*
X131199958Y-82908436D01*
X131133091Y-82932294D01*
X131125897Y-82932500D01*
X127962200Y-82932500D01*
X127894079Y-82912498D01*
X127874853Y-82896157D01*
X127874580Y-82896460D01*
X127869668Y-82892037D01*
X127865253Y-82887134D01*
X127710752Y-82774882D01*
X127704724Y-82772198D01*
X127704722Y-82772197D01*
X127542319Y-82699891D01*
X127542318Y-82699891D01*
X127536288Y-82697206D01*
X127442888Y-82677353D01*
X127355944Y-82658872D01*
X127355939Y-82658872D01*
X127349487Y-82657500D01*
X127158513Y-82657500D01*
X127152061Y-82658872D01*
X127152056Y-82658872D01*
X127065112Y-82677353D01*
X126971712Y-82697206D01*
X126965682Y-82699891D01*
X126965681Y-82699891D01*
X126803278Y-82772197D01*
X126803276Y-82772198D01*
X126797248Y-82774882D01*
X126642747Y-82887134D01*
X126638326Y-82892044D01*
X126638325Y-82892045D01*
X126536580Y-83005045D01*
X126514960Y-83029056D01*
X126419473Y-83194444D01*
X126360458Y-83376072D01*
X126359768Y-83382633D01*
X126359768Y-83382635D01*
X126341186Y-83559435D01*
X126340496Y-83566000D01*
X92583500Y-83566000D01*
X92583500Y-78240000D01*
X123004002Y-78240000D01*
X123023957Y-78468087D01*
X123083216Y-78689243D01*
X123085539Y-78694224D01*
X123085539Y-78694225D01*
X123177651Y-78891762D01*
X123177654Y-78891767D01*
X123179977Y-78896749D01*
X123311302Y-79084300D01*
X123473200Y-79246198D01*
X123477708Y-79249355D01*
X123477711Y-79249357D01*
X123555889Y-79304098D01*
X123660751Y-79377523D01*
X123665733Y-79379846D01*
X123665738Y-79379849D01*
X123863275Y-79471961D01*
X123868257Y-79474284D01*
X123873565Y-79475706D01*
X123873567Y-79475707D01*
X124084098Y-79532119D01*
X124084100Y-79532119D01*
X124089413Y-79533543D01*
X124317500Y-79553498D01*
X124545587Y-79533543D01*
X124550900Y-79532119D01*
X124550902Y-79532119D01*
X124761433Y-79475707D01*
X124761435Y-79475706D01*
X124766743Y-79474284D01*
X124771725Y-79471961D01*
X124969262Y-79379849D01*
X124969267Y-79379846D01*
X124974249Y-79377523D01*
X125079111Y-79304098D01*
X125157289Y-79249357D01*
X125157292Y-79249355D01*
X125161800Y-79246198D01*
X125323698Y-79084300D01*
X125455023Y-78896749D01*
X125457346Y-78891767D01*
X125457349Y-78891762D01*
X125549461Y-78694225D01*
X125549461Y-78694224D01*
X125551784Y-78689243D01*
X125611043Y-78468087D01*
X125630998Y-78240000D01*
X130624002Y-78240000D01*
X130643957Y-78468087D01*
X130703216Y-78689243D01*
X130705539Y-78694224D01*
X130705539Y-78694225D01*
X130797651Y-78891762D01*
X130797654Y-78891767D01*
X130799977Y-78896749D01*
X130931302Y-79084300D01*
X131093200Y-79246198D01*
X131097708Y-79249355D01*
X131097711Y-79249357D01*
X131175889Y-79304098D01*
X131280751Y-79377523D01*
X131285733Y-79379846D01*
X131285738Y-79379849D01*
X131483275Y-79471961D01*
X131488257Y-79474284D01*
X131493565Y-79475706D01*
X131493567Y-79475707D01*
X131704098Y-79532119D01*
X131704100Y-79532119D01*
X131709413Y-79533543D01*
X131937500Y-79553498D01*
X132165587Y-79533543D01*
X132170900Y-79532119D01*
X132170902Y-79532119D01*
X132381433Y-79475707D01*
X132381435Y-79475706D01*
X132386743Y-79474284D01*
X132391725Y-79471961D01*
X132589262Y-79379849D01*
X132589267Y-79379846D01*
X132594249Y-79377523D01*
X132699111Y-79304098D01*
X132777289Y-79249357D01*
X132777292Y-79249355D01*
X132781800Y-79246198D01*
X132943698Y-79084300D01*
X133075023Y-78896749D01*
X133077346Y-78891767D01*
X133077349Y-78891762D01*
X133169461Y-78694225D01*
X133169461Y-78694224D01*
X133171784Y-78689243D01*
X133231043Y-78468087D01*
X133250998Y-78240000D01*
X133231043Y-78011913D01*
X133171784Y-77790757D01*
X133169461Y-77785775D01*
X133077349Y-77588238D01*
X133077346Y-77588233D01*
X133075023Y-77583251D01*
X132943698Y-77395700D01*
X132781800Y-77233802D01*
X132777292Y-77230645D01*
X132777289Y-77230643D01*
X132699111Y-77175902D01*
X132594249Y-77102477D01*
X132589267Y-77100154D01*
X132589262Y-77100151D01*
X132555043Y-77084195D01*
X132501758Y-77037278D01*
X132482297Y-76969001D01*
X132502839Y-76901041D01*
X132555043Y-76855805D01*
X132589262Y-76839849D01*
X132589267Y-76839846D01*
X132594249Y-76837523D01*
X132699111Y-76764098D01*
X132777289Y-76709357D01*
X132777292Y-76709355D01*
X132781800Y-76706198D01*
X132943698Y-76544300D01*
X133075023Y-76356749D01*
X133077346Y-76351767D01*
X133077349Y-76351762D01*
X133169461Y-76154225D01*
X133169461Y-76154224D01*
X133171784Y-76149243D01*
X133231043Y-75928087D01*
X133250998Y-75700000D01*
X133231043Y-75471913D01*
X133217885Y-75422807D01*
X133173207Y-75256067D01*
X133173206Y-75256065D01*
X133171784Y-75250757D01*
X133169461Y-75245775D01*
X133077349Y-75048238D01*
X133077346Y-75048233D01*
X133075023Y-75043251D01*
X132943698Y-74855700D01*
X132781800Y-74693802D01*
X132777292Y-74690645D01*
X132777289Y-74690643D01*
X132680039Y-74622548D01*
X132594249Y-74562477D01*
X132589267Y-74560154D01*
X132589262Y-74560151D01*
X132555043Y-74544195D01*
X132501758Y-74497278D01*
X132482297Y-74429001D01*
X132502839Y-74361041D01*
X132555043Y-74315805D01*
X132589262Y-74299849D01*
X132589267Y-74299846D01*
X132594249Y-74297523D01*
X132735958Y-74198297D01*
X132777289Y-74169357D01*
X132777292Y-74169355D01*
X132781800Y-74166198D01*
X132943698Y-74004300D01*
X133075023Y-73816749D01*
X133077346Y-73811767D01*
X133077349Y-73811762D01*
X133169461Y-73614225D01*
X133169461Y-73614224D01*
X133171784Y-73609243D01*
X133231043Y-73388087D01*
X133250998Y-73160000D01*
X133231043Y-72931913D01*
X133229619Y-72926598D01*
X133173207Y-72716067D01*
X133173206Y-72716065D01*
X133171784Y-72710757D01*
X133105544Y-72568703D01*
X133077349Y-72508238D01*
X133077346Y-72508233D01*
X133075023Y-72503251D01*
X132943698Y-72315700D01*
X132781800Y-72153802D01*
X132777292Y-72150645D01*
X132777289Y-72150643D01*
X132699111Y-72095902D01*
X132594249Y-72022477D01*
X132589267Y-72020154D01*
X132589262Y-72020151D01*
X132391725Y-71928039D01*
X132391724Y-71928039D01*
X132386743Y-71925716D01*
X132381435Y-71924294D01*
X132381433Y-71924293D01*
X132170902Y-71867881D01*
X132170900Y-71867881D01*
X132165587Y-71866457D01*
X131937500Y-71846502D01*
X131709413Y-71866457D01*
X131704100Y-71867881D01*
X131704098Y-71867881D01*
X131493567Y-71924293D01*
X131493565Y-71924294D01*
X131488257Y-71925716D01*
X131483276Y-71928039D01*
X131483275Y-71928039D01*
X131285738Y-72020151D01*
X131285733Y-72020154D01*
X131280751Y-72022477D01*
X131175889Y-72095902D01*
X131097711Y-72150643D01*
X131097708Y-72150645D01*
X131093200Y-72153802D01*
X130931302Y-72315700D01*
X130799977Y-72503251D01*
X130797654Y-72508233D01*
X130797651Y-72508238D01*
X130769456Y-72568703D01*
X130703216Y-72710757D01*
X130701794Y-72716065D01*
X130701793Y-72716067D01*
X130645381Y-72926598D01*
X130643957Y-72931913D01*
X130624002Y-73160000D01*
X130643957Y-73388087D01*
X130703216Y-73609243D01*
X130705539Y-73614224D01*
X130705539Y-73614225D01*
X130797651Y-73811762D01*
X130797654Y-73811767D01*
X130799977Y-73816749D01*
X130931302Y-74004300D01*
X131093200Y-74166198D01*
X131097708Y-74169355D01*
X131097711Y-74169357D01*
X131139042Y-74198297D01*
X131280751Y-74297523D01*
X131285733Y-74299846D01*
X131285738Y-74299849D01*
X131319957Y-74315805D01*
X131373242Y-74362722D01*
X131392703Y-74430999D01*
X131372161Y-74498959D01*
X131319957Y-74544195D01*
X131285738Y-74560151D01*
X131285733Y-74560154D01*
X131280751Y-74562477D01*
X131194961Y-74622548D01*
X131097711Y-74690643D01*
X131097708Y-74690645D01*
X131093200Y-74693802D01*
X130931302Y-74855700D01*
X130799977Y-75043251D01*
X130797654Y-75048233D01*
X130797651Y-75048238D01*
X130705539Y-75245775D01*
X130703216Y-75250757D01*
X130701794Y-75256065D01*
X130701793Y-75256067D01*
X130657115Y-75422807D01*
X130643957Y-75471913D01*
X130624002Y-75700000D01*
X130643957Y-75928087D01*
X130703216Y-76149243D01*
X130705539Y-76154224D01*
X130705539Y-76154225D01*
X130797651Y-76351762D01*
X130797654Y-76351767D01*
X130799977Y-76356749D01*
X130931302Y-76544300D01*
X131093200Y-76706198D01*
X131097708Y-76709355D01*
X131097711Y-76709357D01*
X131175889Y-76764098D01*
X131280751Y-76837523D01*
X131285733Y-76839846D01*
X131285738Y-76839849D01*
X131319957Y-76855805D01*
X131373242Y-76902722D01*
X131392703Y-76970999D01*
X131372161Y-77038959D01*
X131319957Y-77084195D01*
X131285738Y-77100151D01*
X131285733Y-77100154D01*
X131280751Y-77102477D01*
X131175889Y-77175902D01*
X131097711Y-77230643D01*
X131097708Y-77230645D01*
X131093200Y-77233802D01*
X130931302Y-77395700D01*
X130799977Y-77583251D01*
X130797654Y-77588233D01*
X130797651Y-77588238D01*
X130705539Y-77785775D01*
X130703216Y-77790757D01*
X130643957Y-78011913D01*
X130624002Y-78240000D01*
X125630998Y-78240000D01*
X125611043Y-78011913D01*
X125551784Y-77790757D01*
X125549461Y-77785775D01*
X125457349Y-77588238D01*
X125457346Y-77588233D01*
X125455023Y-77583251D01*
X125323698Y-77395700D01*
X125161800Y-77233802D01*
X125157292Y-77230645D01*
X125157289Y-77230643D01*
X125079111Y-77175902D01*
X124974249Y-77102477D01*
X124969267Y-77100154D01*
X124969262Y-77100151D01*
X124935043Y-77084195D01*
X124881758Y-77037278D01*
X124862297Y-76969001D01*
X124882839Y-76901041D01*
X124935043Y-76855805D01*
X124969262Y-76839849D01*
X124969267Y-76839846D01*
X124974249Y-76837523D01*
X125079111Y-76764098D01*
X125157289Y-76709357D01*
X125157292Y-76709355D01*
X125161800Y-76706198D01*
X125323698Y-76544300D01*
X125455023Y-76356749D01*
X125457346Y-76351767D01*
X125457349Y-76351762D01*
X125549461Y-76154225D01*
X125549461Y-76154224D01*
X125551784Y-76149243D01*
X125611043Y-75928087D01*
X125630998Y-75700000D01*
X125611043Y-75471913D01*
X125597885Y-75422807D01*
X125553207Y-75256067D01*
X125553206Y-75256065D01*
X125551784Y-75250757D01*
X125549461Y-75245775D01*
X125457349Y-75048238D01*
X125457346Y-75048233D01*
X125455023Y-75043251D01*
X125323698Y-74855700D01*
X125161800Y-74693802D01*
X125157289Y-74690643D01*
X125153076Y-74687108D01*
X125154027Y-74685974D01*
X125114029Y-74635929D01*
X125106724Y-74565310D01*
X125138758Y-74501951D01*
X125199962Y-74465970D01*
X125217017Y-74462918D01*
X125227816Y-74461745D01*
X125364205Y-74410615D01*
X125480761Y-74323261D01*
X125568115Y-74206705D01*
X125619245Y-74070316D01*
X125626000Y-74008134D01*
X125626000Y-72311866D01*
X125619245Y-72249684D01*
X125568115Y-72113295D01*
X125480761Y-71996739D01*
X125364205Y-71909385D01*
X125227816Y-71858255D01*
X125165634Y-71851500D01*
X123469366Y-71851500D01*
X123407184Y-71858255D01*
X123270795Y-71909385D01*
X123154239Y-71996739D01*
X123066885Y-72113295D01*
X123015755Y-72249684D01*
X123009000Y-72311866D01*
X123009000Y-74008134D01*
X123015755Y-74070316D01*
X123066885Y-74206705D01*
X123154239Y-74323261D01*
X123270795Y-74410615D01*
X123407184Y-74461745D01*
X123417974Y-74462917D01*
X123420106Y-74463803D01*
X123422722Y-74464425D01*
X123422621Y-74464848D01*
X123483535Y-74490155D01*
X123523963Y-74548517D01*
X123526422Y-74619471D01*
X123490129Y-74680490D01*
X123481469Y-74687489D01*
X123477707Y-74690646D01*
X123473200Y-74693802D01*
X123311302Y-74855700D01*
X123179977Y-75043251D01*
X123177654Y-75048233D01*
X123177651Y-75048238D01*
X123085539Y-75245775D01*
X123083216Y-75250757D01*
X123081794Y-75256065D01*
X123081793Y-75256067D01*
X123037115Y-75422807D01*
X123023957Y-75471913D01*
X123004002Y-75700000D01*
X123023957Y-75928087D01*
X123083216Y-76149243D01*
X123085539Y-76154224D01*
X123085539Y-76154225D01*
X123177651Y-76351762D01*
X123177654Y-76351767D01*
X123179977Y-76356749D01*
X123311302Y-76544300D01*
X123473200Y-76706198D01*
X123477708Y-76709355D01*
X123477711Y-76709357D01*
X123555889Y-76764098D01*
X123660751Y-76837523D01*
X123665733Y-76839846D01*
X123665738Y-76839849D01*
X123699957Y-76855805D01*
X123753242Y-76902722D01*
X123772703Y-76970999D01*
X123752161Y-77038959D01*
X123699957Y-77084195D01*
X123665738Y-77100151D01*
X123665733Y-77100154D01*
X123660751Y-77102477D01*
X123555889Y-77175902D01*
X123477711Y-77230643D01*
X123477708Y-77230645D01*
X123473200Y-77233802D01*
X123311302Y-77395700D01*
X123179977Y-77583251D01*
X123177654Y-77588233D01*
X123177651Y-77588238D01*
X123085539Y-77785775D01*
X123083216Y-77790757D01*
X123023957Y-78011913D01*
X123004002Y-78240000D01*
X92583500Y-78240000D01*
X92583500Y-75002095D01*
X103217001Y-75002095D01*
X103217338Y-75008614D01*
X103227257Y-75104206D01*
X103230149Y-75117600D01*
X103281588Y-75271784D01*
X103287761Y-75284962D01*
X103373063Y-75422807D01*
X103382099Y-75434208D01*
X103496829Y-75548739D01*
X103508240Y-75557751D01*
X103646243Y-75642816D01*
X103659424Y-75648963D01*
X103813710Y-75700138D01*
X103827086Y-75703005D01*
X103921438Y-75712672D01*
X103927854Y-75713000D01*
X104427885Y-75713000D01*
X104443124Y-75708525D01*
X104444329Y-75707135D01*
X104446000Y-75699452D01*
X104446000Y-75694884D01*
X104954000Y-75694884D01*
X104958475Y-75710123D01*
X104959865Y-75711328D01*
X104967548Y-75712999D01*
X105472095Y-75712999D01*
X105478614Y-75712662D01*
X105574206Y-75702743D01*
X105587600Y-75699851D01*
X105741784Y-75648412D01*
X105754962Y-75642239D01*
X105892807Y-75556937D01*
X105904208Y-75547901D01*
X106018739Y-75433171D01*
X106027751Y-75421760D01*
X106112816Y-75283757D01*
X106118963Y-75270576D01*
X106170138Y-75116290D01*
X106173005Y-75102914D01*
X106182672Y-75008562D01*
X106183000Y-75002145D01*
X106183000Y-74627115D01*
X106178525Y-74611876D01*
X106177135Y-74610671D01*
X106169452Y-74609000D01*
X104972115Y-74609000D01*
X104956876Y-74613475D01*
X104955671Y-74614865D01*
X104954000Y-74622548D01*
X104954000Y-75694884D01*
X104446000Y-75694884D01*
X104446000Y-74627115D01*
X104441525Y-74611876D01*
X104440135Y-74610671D01*
X104432452Y-74609000D01*
X103235116Y-74609000D01*
X103219877Y-74613475D01*
X103218672Y-74614865D01*
X103217001Y-74622548D01*
X103217001Y-75002095D01*
X92583500Y-75002095D01*
X92583500Y-71790774D01*
X103213102Y-71790774D01*
X103221751Y-72021158D01*
X103269093Y-72246791D01*
X103271051Y-72251750D01*
X103271052Y-72251752D01*
X103296307Y-72315700D01*
X103353776Y-72461221D01*
X103356543Y-72465780D01*
X103356544Y-72465783D01*
X103418998Y-72568703D01*
X103473377Y-72658317D01*
X103476874Y-72662347D01*
X103563438Y-72762103D01*
X103624477Y-72832445D01*
X103628608Y-72835832D01*
X103660529Y-72862006D01*
X103700524Y-72920666D01*
X103702455Y-72991636D01*
X103665710Y-73052384D01*
X103646941Y-73066584D01*
X103507193Y-73153063D01*
X103495792Y-73162099D01*
X103381261Y-73276829D01*
X103372249Y-73288240D01*
X103287184Y-73426243D01*
X103281037Y-73439424D01*
X103229862Y-73593710D01*
X103226995Y-73607086D01*
X103217328Y-73701438D01*
X103217000Y-73707855D01*
X103217000Y-74082885D01*
X103221475Y-74098124D01*
X103222865Y-74099329D01*
X103230548Y-74101000D01*
X106164884Y-74101000D01*
X106180123Y-74096525D01*
X106181328Y-74095135D01*
X106182999Y-74087452D01*
X106182999Y-73707905D01*
X106182662Y-73701386D01*
X106172743Y-73605794D01*
X106169851Y-73592400D01*
X106118412Y-73438216D01*
X106112239Y-73425038D01*
X106026937Y-73287193D01*
X106017901Y-73275792D01*
X105903171Y-73161261D01*
X105891757Y-73152247D01*
X105752287Y-73066277D01*
X105704793Y-73013505D01*
X105693369Y-72943434D01*
X105721643Y-72878310D01*
X105731430Y-72867847D01*
X105764991Y-72835832D01*
X105846135Y-72758424D01*
X105983754Y-72573458D01*
X106088240Y-72367949D01*
X106104594Y-72315283D01*
X106155024Y-72152871D01*
X106156607Y-72147773D01*
X106162129Y-72106109D01*
X106186198Y-71924511D01*
X106186198Y-71924506D01*
X106186898Y-71919226D01*
X106184971Y-71867881D01*
X106178449Y-71694173D01*
X106178249Y-71688842D01*
X106130907Y-71463209D01*
X106046224Y-71248779D01*
X105926623Y-71051683D01*
X105839755Y-70951576D01*
X105779023Y-70881588D01*
X105779021Y-70881586D01*
X105775523Y-70877555D01*
X105733970Y-70843484D01*
X105601373Y-70734760D01*
X105601367Y-70734756D01*
X105597245Y-70731376D01*
X105565750Y-70713448D01*
X105516445Y-70662368D01*
X105502583Y-70592738D01*
X105528566Y-70526667D01*
X105557716Y-70499427D01*
X105593642Y-70475240D01*
X105679319Y-70417559D01*
X105846135Y-70258424D01*
X105983754Y-70073458D01*
X106088240Y-69867949D01*
X106124321Y-69751752D01*
X106155024Y-69652871D01*
X106156607Y-69647773D01*
X106157308Y-69642484D01*
X106186198Y-69424511D01*
X106186198Y-69424506D01*
X106186898Y-69419226D01*
X106178249Y-69188842D01*
X106130907Y-68963209D01*
X106046224Y-68748779D01*
X105926623Y-68551683D01*
X105839755Y-68451576D01*
X105779023Y-68381588D01*
X105779021Y-68381586D01*
X105775523Y-68377555D01*
X105733970Y-68343484D01*
X105601373Y-68234760D01*
X105601367Y-68234756D01*
X105597245Y-68231376D01*
X105565750Y-68213448D01*
X105516445Y-68162368D01*
X105502583Y-68092738D01*
X105528566Y-68026667D01*
X105557716Y-67999427D01*
X105593642Y-67975240D01*
X105679319Y-67917559D01*
X105846135Y-67758424D01*
X105983754Y-67573458D01*
X106088240Y-67367949D01*
X106124321Y-67251752D01*
X106155024Y-67152871D01*
X106156607Y-67147773D01*
X106157308Y-67142484D01*
X106186198Y-66924511D01*
X106186198Y-66924506D01*
X106186898Y-66919226D01*
X106178249Y-66688842D01*
X106130907Y-66463209D01*
X106046224Y-66248779D01*
X105926623Y-66051683D01*
X105839755Y-65951576D01*
X105779023Y-65881588D01*
X105779021Y-65881586D01*
X105775523Y-65877555D01*
X105733970Y-65843484D01*
X105601373Y-65734760D01*
X105601367Y-65734756D01*
X105597245Y-65731376D01*
X105592609Y-65728737D01*
X105592606Y-65728735D01*
X105401529Y-65619968D01*
X105396886Y-65617325D01*
X105180175Y-65538663D01*
X105174926Y-65537714D01*
X105174923Y-65537713D01*
X104957392Y-65498377D01*
X104957385Y-65498376D01*
X104953308Y-65497639D01*
X104935586Y-65496803D01*
X104930644Y-65496570D01*
X104930637Y-65496570D01*
X104929156Y-65496500D01*
X104517110Y-65496500D01*
X104450191Y-65502178D01*
X104350591Y-65510629D01*
X104350587Y-65510630D01*
X104345280Y-65511080D01*
X104340125Y-65512418D01*
X104340119Y-65512419D01*
X104127297Y-65567657D01*
X104127293Y-65567658D01*
X104122128Y-65568999D01*
X104117262Y-65571191D01*
X104117259Y-65571192D01*
X104008980Y-65619968D01*
X103911925Y-65663688D01*
X103720681Y-65792441D01*
X103553865Y-65951576D01*
X103416246Y-66136542D01*
X103311760Y-66342051D01*
X103310178Y-66347145D01*
X103310177Y-66347148D01*
X103248115Y-66547020D01*
X103243393Y-66562227D01*
X103242692Y-66567516D01*
X103227304Y-66683623D01*
X103213102Y-66790774D01*
X103221751Y-67021158D01*
X103269093Y-67246791D01*
X103353776Y-67461221D01*
X103473377Y-67658317D01*
X103476874Y-67662347D01*
X103563438Y-67762103D01*
X103624477Y-67832445D01*
X103628608Y-67835832D01*
X103798627Y-67975240D01*
X103798633Y-67975244D01*
X103802755Y-67978624D01*
X103834250Y-67996552D01*
X103883555Y-68047632D01*
X103897417Y-68117262D01*
X103871434Y-68183333D01*
X103842284Y-68210573D01*
X103720681Y-68292441D01*
X103553865Y-68451576D01*
X103416246Y-68636542D01*
X103311760Y-68842051D01*
X103310178Y-68847145D01*
X103310177Y-68847148D01*
X103248115Y-69047020D01*
X103243393Y-69062227D01*
X103242692Y-69067516D01*
X103227304Y-69183623D01*
X103213102Y-69290774D01*
X103221751Y-69521158D01*
X103269093Y-69746791D01*
X103353776Y-69961221D01*
X103473377Y-70158317D01*
X103476874Y-70162347D01*
X103563438Y-70262103D01*
X103624477Y-70332445D01*
X103628608Y-70335832D01*
X103798627Y-70475240D01*
X103798633Y-70475244D01*
X103802755Y-70478624D01*
X103834250Y-70496552D01*
X103883555Y-70547632D01*
X103897417Y-70617262D01*
X103871434Y-70683333D01*
X103842284Y-70710573D01*
X103720681Y-70792441D01*
X103553865Y-70951576D01*
X103416246Y-71136542D01*
X103311760Y-71342051D01*
X103310178Y-71347145D01*
X103310177Y-71347148D01*
X103248115Y-71547020D01*
X103243393Y-71562227D01*
X103242692Y-71567516D01*
X103227304Y-71683623D01*
X103213102Y-71790774D01*
X92583500Y-71790774D01*
X92583500Y-60000000D01*
X94736445Y-60000000D01*
X94756651Y-60385559D01*
X94817049Y-60766894D01*
X94916976Y-61139826D01*
X95055337Y-61500270D01*
X95230618Y-61844277D01*
X95440896Y-62168078D01*
X95683869Y-62468125D01*
X95956875Y-62741131D01*
X96256922Y-62984104D01*
X96580722Y-63194382D01*
X96583656Y-63195877D01*
X96583663Y-63195881D01*
X96921790Y-63368165D01*
X96924730Y-63369663D01*
X97285174Y-63508024D01*
X97658106Y-63607951D01*
X97860643Y-63640030D01*
X98036193Y-63667835D01*
X98036201Y-63667836D01*
X98039441Y-63668349D01*
X98425000Y-63688555D01*
X98810559Y-63668349D01*
X98813799Y-63667836D01*
X98813807Y-63667835D01*
X98989357Y-63640030D01*
X99191894Y-63607951D01*
X99564826Y-63508024D01*
X99925270Y-63369663D01*
X99928210Y-63368165D01*
X100266337Y-63195881D01*
X100266344Y-63195877D01*
X100269278Y-63194382D01*
X100593078Y-62984104D01*
X100893125Y-62741131D01*
X101166131Y-62468125D01*
X101409104Y-62168078D01*
X101619382Y-61844277D01*
X101794663Y-61500270D01*
X101933024Y-61139826D01*
X102032951Y-60766894D01*
X102093349Y-60385559D01*
X102113555Y-60000000D01*
X148711445Y-60000000D01*
X148731651Y-60385559D01*
X148792049Y-60766894D01*
X148891976Y-61139826D01*
X149030337Y-61500270D01*
X149205618Y-61844277D01*
X149415896Y-62168078D01*
X149658869Y-62468125D01*
X149931875Y-62741131D01*
X150231922Y-62984104D01*
X150555722Y-63194382D01*
X150558656Y-63195877D01*
X150558663Y-63195881D01*
X150896790Y-63368165D01*
X150899730Y-63369663D01*
X151260174Y-63508024D01*
X151633106Y-63607951D01*
X151835643Y-63640030D01*
X152011193Y-63667835D01*
X152011201Y-63667836D01*
X152014441Y-63668349D01*
X152400000Y-63688555D01*
X152785559Y-63668349D01*
X152788799Y-63667836D01*
X152788807Y-63667835D01*
X152964357Y-63640030D01*
X153166894Y-63607951D01*
X153539826Y-63508024D01*
X153900270Y-63369663D01*
X153903210Y-63368165D01*
X154241337Y-63195881D01*
X154241344Y-63195877D01*
X154244278Y-63194382D01*
X154568078Y-62984104D01*
X154868125Y-62741131D01*
X155141131Y-62468125D01*
X155384104Y-62168078D01*
X155594382Y-61844277D01*
X155769663Y-61500270D01*
X155908024Y-61139826D01*
X156007951Y-60766894D01*
X156068349Y-60385559D01*
X156088555Y-60000000D01*
X156068349Y-59614441D01*
X156007951Y-59233106D01*
X155908024Y-58860174D01*
X155769663Y-58499730D01*
X155752858Y-58466748D01*
X155595881Y-58158664D01*
X155595877Y-58158657D01*
X155594382Y-58155723D01*
X155384104Y-57831922D01*
X155141131Y-57531875D01*
X154868125Y-57258869D01*
X154568078Y-57015896D01*
X154244278Y-56805618D01*
X154241344Y-56804123D01*
X154241337Y-56804119D01*
X153903210Y-56631835D01*
X153900270Y-56630337D01*
X153539826Y-56491976D01*
X153166894Y-56392049D01*
X152964357Y-56359970D01*
X152788807Y-56332165D01*
X152788799Y-56332164D01*
X152785559Y-56331651D01*
X152400000Y-56311445D01*
X152014441Y-56331651D01*
X152011201Y-56332164D01*
X152011193Y-56332165D01*
X151835643Y-56359970D01*
X151633106Y-56392049D01*
X151260174Y-56491976D01*
X150899730Y-56630337D01*
X150896790Y-56631835D01*
X150558664Y-56804119D01*
X150558657Y-56804123D01*
X150555723Y-56805618D01*
X150231922Y-57015896D01*
X149931875Y-57258869D01*
X149658869Y-57531875D01*
X149415896Y-57831922D01*
X149205618Y-58155723D01*
X149204123Y-58158657D01*
X149204119Y-58158664D01*
X149047142Y-58466748D01*
X149030337Y-58499730D01*
X148891976Y-58860174D01*
X148792049Y-59233106D01*
X148731651Y-59614441D01*
X148712908Y-59972077D01*
X148711445Y-60000000D01*
X102113555Y-60000000D01*
X102093349Y-59614441D01*
X102032951Y-59233106D01*
X101933024Y-58860174D01*
X101794663Y-58499730D01*
X101777858Y-58466748D01*
X101620881Y-58158664D01*
X101620877Y-58158657D01*
X101619382Y-58155723D01*
X101409104Y-57831922D01*
X101166131Y-57531875D01*
X100893125Y-57258869D01*
X100593078Y-57015896D01*
X100269278Y-56805618D01*
X100266344Y-56804123D01*
X100266337Y-56804119D01*
X99928210Y-56631835D01*
X99925270Y-56630337D01*
X99564826Y-56491976D01*
X99191894Y-56392049D01*
X98989357Y-56359970D01*
X98813807Y-56332165D01*
X98813799Y-56332164D01*
X98810559Y-56331651D01*
X98425000Y-56311445D01*
X98039441Y-56331651D01*
X98036201Y-56332164D01*
X98036193Y-56332165D01*
X97860643Y-56359970D01*
X97658106Y-56392049D01*
X97285174Y-56491976D01*
X96924730Y-56630337D01*
X96921790Y-56631835D01*
X96583664Y-56804119D01*
X96583657Y-56804123D01*
X96580723Y-56805618D01*
X96256922Y-57015896D01*
X95956875Y-57258869D01*
X95683869Y-57531875D01*
X95440896Y-57831922D01*
X95230618Y-58155723D01*
X95229123Y-58158657D01*
X95229119Y-58158664D01*
X95072142Y-58466748D01*
X95055337Y-58499730D01*
X94916976Y-58860174D01*
X94817049Y-59233106D01*
X94756651Y-59614441D01*
X94737908Y-59972077D01*
X94736445Y-60000000D01*
X92583500Y-60000000D01*
X92583500Y-54609500D01*
X92603502Y-54541379D01*
X92657158Y-54494886D01*
X92709500Y-54483500D01*
X158115500Y-54483500D01*
X158183621Y-54503502D01*
G37*
%TD.AperFunction*%
%TD*%
M02*
