%TF.GenerationSoftware,KiCad,Pcbnew,6.0.11+dfsg-1*%
%TF.CreationDate,2024-01-30T14:39:01+01:00*%
%TF.ProjectId,Langstone-Soundcard,4c616e67-7374-46f6-9e65-2d536f756e64,rev?*%
%TF.SameCoordinates,Original*%
%TF.FileFunction,Copper,L1,Top*%
%TF.FilePolarity,Positive*%
%FSLAX46Y46*%
G04 Gerber Fmt 4.6, Leading zero omitted, Abs format (unit mm)*
G04 Created by KiCad (PCBNEW 6.0.11+dfsg-1) date 2024-01-30 14:39:01*
%MOMM*%
%LPD*%
G01*
G04 APERTURE LIST*
G04 Aperture macros list*
%AMRoundRect*
0 Rectangle with rounded corners*
0 $1 Rounding radius*
0 $2 $3 $4 $5 $6 $7 $8 $9 X,Y pos of 4 corners*
0 Add a 4 corners polygon primitive as box body*
4,1,4,$2,$3,$4,$5,$6,$7,$8,$9,$2,$3,0*
0 Add four circle primitives for the rounded corners*
1,1,$1+$1,$2,$3*
1,1,$1+$1,$4,$5*
1,1,$1+$1,$6,$7*
1,1,$1+$1,$8,$9*
0 Add four rect primitives between the rounded corners*
20,1,$1+$1,$2,$3,$4,$5,0*
20,1,$1+$1,$4,$5,$6,$7,0*
20,1,$1+$1,$6,$7,$8,$9,0*
20,1,$1+$1,$8,$9,$2,$3,0*%
G04 Aperture macros list end*
%TA.AperFunction,SMDPad,CuDef*%
%ADD10RoundRect,0.250000X-0.400000X-0.625000X0.400000X-0.625000X0.400000X0.625000X-0.400000X0.625000X0*%
%TD*%
%TA.AperFunction,SMDPad,CuDef*%
%ADD11RoundRect,0.250000X-0.650000X0.412500X-0.650000X-0.412500X0.650000X-0.412500X0.650000X0.412500X0*%
%TD*%
%TA.AperFunction,SMDPad,CuDef*%
%ADD12RoundRect,0.250000X0.537500X0.425000X-0.537500X0.425000X-0.537500X-0.425000X0.537500X-0.425000X0*%
%TD*%
%TA.AperFunction,ComponentPad*%
%ADD13RoundRect,0.250000X0.725000X-0.600000X0.725000X0.600000X-0.725000X0.600000X-0.725000X-0.600000X0*%
%TD*%
%TA.AperFunction,ComponentPad*%
%ADD14O,1.950000X1.700000*%
%TD*%
%TA.AperFunction,SMDPad,CuDef*%
%ADD15RoundRect,0.250000X0.650000X-0.412500X0.650000X0.412500X-0.650000X0.412500X-0.650000X-0.412500X0*%
%TD*%
%TA.AperFunction,SMDPad,CuDef*%
%ADD16RoundRect,0.250000X-0.412500X-0.650000X0.412500X-0.650000X0.412500X0.650000X-0.412500X0.650000X0*%
%TD*%
%TA.AperFunction,SMDPad,CuDef*%
%ADD17R,1.750000X0.450000*%
%TD*%
%TA.AperFunction,SMDPad,CuDef*%
%ADD18RoundRect,0.250000X0.412500X0.650000X-0.412500X0.650000X-0.412500X-0.650000X0.412500X-0.650000X0*%
%TD*%
%TA.AperFunction,SMDPad,CuDef*%
%ADD19R,2.000000X7.875000*%
%TD*%
%TA.AperFunction,SMDPad,CuDef*%
%ADD20RoundRect,0.250000X-0.537500X-0.425000X0.537500X-0.425000X0.537500X0.425000X-0.537500X0.425000X0*%
%TD*%
%TA.AperFunction,ComponentPad*%
%ADD21R,1.600000X1.600000*%
%TD*%
%TA.AperFunction,ComponentPad*%
%ADD22O,1.600000X1.600000*%
%TD*%
%TA.AperFunction,ViaPad*%
%ADD23C,0.800000*%
%TD*%
%TA.AperFunction,Conductor*%
%ADD24C,0.250000*%
%TD*%
%TA.AperFunction,Conductor*%
%ADD25C,0.500000*%
%TD*%
%TA.AperFunction,Conductor*%
%ADD26C,0.400000*%
%TD*%
G04 APERTURE END LIST*
D10*
%TO.P,R6,1*%
%TO.N,Net-(J2-Pad4)*%
X115060000Y-79440000D03*
%TO.P,R6,2*%
%TO.N,Net-(R6-Pad2)*%
X118160000Y-79440000D03*
%TD*%
D11*
%TO.P,C4,1*%
%TO.N,GND*%
X134874000Y-83273500D03*
%TO.P,C4,2*%
%TO.N,Net-(C4-Pad2)*%
X134874000Y-86398500D03*
%TD*%
D12*
%TO.P,C1,1*%
%TO.N,Net-(C1-Pad1)*%
X118087500Y-99650000D03*
%TO.P,C1,2*%
%TO.N,Net-(C1-Pad2)*%
X115212500Y-99650000D03*
%TD*%
D13*
%TO.P,J1,1,Pin_1*%
%TO.N,GND*%
X105225000Y-106165000D03*
D14*
%TO.P,J1,2,Pin_2*%
%TO.N,Net-(C2-Pad2)*%
X105225000Y-103665000D03*
%TO.P,J1,3,Pin_3*%
%TO.N,Net-(C1-Pad2)*%
X105225000Y-101165000D03*
%TD*%
D15*
%TO.P,C9,1*%
%TO.N,Net-(C9-Pad1)*%
X139954000Y-86398500D03*
%TO.P,C9,2*%
%TO.N,GND*%
X139954000Y-83273500D03*
%TD*%
D12*
%TO.P,C5,1*%
%TO.N,Net-(C5-Pad1)*%
X118277500Y-96012000D03*
%TO.P,C5,2*%
%TO.N,GND*%
X115402500Y-96012000D03*
%TD*%
D10*
%TO.P,R2,1*%
%TO.N,Net-(R1-Pad1)*%
X115060000Y-69585000D03*
%TO.P,R2,2*%
%TO.N,Net-(R2-Pad2)*%
X118160000Y-69585000D03*
%TD*%
D12*
%TO.P,C6,1*%
%TO.N,Net-(C6-Pad1)*%
X118092500Y-108070000D03*
%TO.P,C6,2*%
%TO.N,GND*%
X115217500Y-108070000D03*
%TD*%
D16*
%TO.P,C12,1*%
%TO.N,Net-(C12-Pad1)*%
X138137500Y-90678000D03*
%TO.P,C12,2*%
%TO.N,GND*%
X141262500Y-90678000D03*
%TD*%
D17*
%TO.P,U1,1,D+*%
%TO.N,Net-(R6-Pad2)*%
X124485000Y-89240000D03*
%TO.P,U1,2,D-*%
%TO.N,Net-(R7-Pad2)*%
X124485000Y-89890000D03*
%TO.P,U1,3,VBUS*%
%TO.N,VCC*%
X124485000Y-90540000D03*
%TO.P,U1,4,DGNDU*%
%TO.N,GND*%
X124485000Y-91190000D03*
%TO.P,U1,5,HID0*%
%TO.N,Net-(SW1-Pad6)*%
X124485000Y-91840000D03*
%TO.P,U1,6,HID1*%
%TO.N,Net-(SW1-Pad5)*%
X124485000Y-92490000D03*
%TO.P,U1,7,HID2*%
%TO.N,Net-(SW1-Pad4)*%
X124485000Y-93140000D03*
%TO.P,U1,8,SEL0*%
%TO.N,Net-(C4-Pad2)*%
X124485000Y-93790000D03*
%TO.P,U1,9,SEL1*%
X124485000Y-94440000D03*
%TO.P,U1,10,VCCCI*%
%TO.N,Net-(C5-Pad1)*%
X124485000Y-95090000D03*
%TO.P,U1,11,AGNDC*%
%TO.N,GND*%
X124485000Y-95740000D03*
%TO.P,U1,12,VINL*%
%TO.N,Net-(C1-Pad1)*%
X124485000Y-96390000D03*
%TO.P,U1,13,VINR*%
%TO.N,Net-(C2-Pad1)*%
X124485000Y-97040000D03*
%TO.P,U1,14,VCOM*%
%TO.N,Net-(C6-Pad1)*%
X124485000Y-97690000D03*
%TO.P,U1,15,VOUTR*%
%TO.N,Net-(C11-Pad1)*%
X131685000Y-97690000D03*
%TO.P,U1,16,VOUTL*%
%TO.N,Net-(C10-Pad1)*%
X131685000Y-97040000D03*
%TO.P,U1,17,VCCP1I*%
%TO.N,Net-(C7-Pad1)*%
X131685000Y-96390000D03*
%TO.P,U1,18,AGNDP*%
%TO.N,GND*%
X131685000Y-95740000D03*
%TO.P,U1,19,VCCP2I*%
%TO.N,Net-(C8-Pad1)*%
X131685000Y-95090000D03*
%TO.P,U1,20,XTO*%
%TO.N,Net-(C13-Pad1)*%
X131685000Y-94440000D03*
%TO.P,U1,21,XTI*%
%TO.N,Net-(C12-Pad1)*%
X131685000Y-93790000D03*
%TO.P,U1,22,AGNDX*%
%TO.N,GND*%
X131685000Y-93140000D03*
%TO.P,U1,23,VCCXI*%
%TO.N,Net-(C9-Pad1)*%
X131685000Y-92490000D03*
%TO.P,U1,24,DIN*%
%TO.N,GND*%
X131685000Y-91840000D03*
%TO.P,U1,25,DOUT*%
%TO.N,unconnected-(U1-Pad25)*%
X131685000Y-91190000D03*
%TO.P,U1,26,DGND*%
%TO.N,GND*%
X131685000Y-90540000D03*
%TO.P,U1,27,VDDI*%
%TO.N,Net-(C4-Pad2)*%
X131685000Y-89890000D03*
%TO.P,U1,28,~{SSPND}*%
%TO.N,Net-(R1-Pad1)*%
X131685000Y-89240000D03*
%TD*%
D10*
%TO.P,R3,1*%
%TO.N,Net-(R1-Pad1)*%
X115060000Y-74190000D03*
%TO.P,R3,2*%
%TO.N,Net-(R3-Pad2)*%
X118160000Y-74190000D03*
%TD*%
D16*
%TO.P,C13,1*%
%TO.N,Net-(C13-Pad1)*%
X138057500Y-94795000D03*
%TO.P,C13,2*%
%TO.N,GND*%
X141182500Y-94795000D03*
%TD*%
D18*
%TO.P,C7,1*%
%TO.N,Net-(C7-Pad1)*%
X127223500Y-107803000D03*
%TO.P,C7,2*%
%TO.N,GND*%
X124098500Y-107803000D03*
%TD*%
D10*
%TO.P,R1,1*%
%TO.N,Net-(R1-Pad1)*%
X115060000Y-65140000D03*
%TO.P,R1,2*%
%TO.N,Net-(R1-Pad2)*%
X118160000Y-65140000D03*
%TD*%
D19*
%TO.P,Y1,1,1*%
%TO.N,Net-(C13-Pad1)*%
X147770000Y-74192500D03*
%TO.P,Y1,2,2*%
%TO.N,Net-(C12-Pad1)*%
X147770000Y-86067500D03*
%TD*%
D18*
%TO.P,C8,1*%
%TO.N,Net-(C8-Pad1)*%
X127223500Y-103993000D03*
%TO.P,C8,2*%
%TO.N,GND*%
X124098500Y-103993000D03*
%TD*%
D13*
%TO.P,J3,1,Pin_1*%
%TO.N,GND*%
X146907500Y-106565000D03*
D14*
%TO.P,J3,2,Pin_2*%
%TO.N,Net-(C11-Pad2)*%
X146907500Y-104065000D03*
%TO.P,J3,3,Pin_3*%
%TO.N,Net-(C10-Pad2)*%
X146907500Y-101565000D03*
%TD*%
D10*
%TO.P,R4,1*%
%TO.N,Net-(J2-Pad2)*%
X115266000Y-92710000D03*
%TO.P,R4,2*%
%TO.N,VCC*%
X118366000Y-92710000D03*
%TD*%
D20*
%TO.P,C11,1*%
%TO.N,Net-(C11-Pad1)*%
X138008500Y-103886000D03*
%TO.P,C11,2*%
%TO.N,Net-(C11-Pad2)*%
X140883500Y-103886000D03*
%TD*%
D10*
%TO.P,R5,1*%
%TO.N,Net-(J2-Pad4)*%
X115060000Y-83200000D03*
%TO.P,R5,2*%
%TO.N,Net-(C4-Pad2)*%
X118160000Y-83200000D03*
%TD*%
D12*
%TO.P,C2,1*%
%TO.N,Net-(C2-Pad1)*%
X118092500Y-103875000D03*
%TO.P,C2,2*%
%TO.N,Net-(C2-Pad2)*%
X115217500Y-103875000D03*
%TD*%
D10*
%TO.P,R7,1*%
%TO.N,Net-(J2-Pad3)*%
X115316000Y-86970000D03*
%TO.P,R7,2*%
%TO.N,Net-(R7-Pad2)*%
X118416000Y-86970000D03*
%TD*%
D13*
%TO.P,J2,1,Pin_1*%
%TO.N,GND*%
X104700000Y-74355000D03*
D14*
%TO.P,J2,2,Pin_2*%
%TO.N,Net-(J2-Pad2)*%
X104700000Y-71855000D03*
%TO.P,J2,3,Pin_3*%
%TO.N,Net-(J2-Pad3)*%
X104700000Y-69355000D03*
%TO.P,J2,4,Pin_4*%
%TO.N,Net-(J2-Pad4)*%
X104700000Y-66855000D03*
%TD*%
D10*
%TO.P,R8,1*%
%TO.N,Net-(C12-Pad1)*%
X146278000Y-94742000D03*
%TO.P,R8,2*%
%TO.N,Net-(C13-Pad1)*%
X149378000Y-94742000D03*
%TD*%
D21*
%TO.P,SW1,1*%
%TO.N,Net-(R1-Pad2)*%
X124317500Y-73160000D03*
D22*
%TO.P,SW1,2*%
%TO.N,Net-(R2-Pad2)*%
X124317500Y-75700000D03*
%TO.P,SW1,3*%
%TO.N,Net-(R3-Pad2)*%
X124317500Y-78240000D03*
%TO.P,SW1,4*%
%TO.N,Net-(SW1-Pad4)*%
X131937500Y-78240000D03*
%TO.P,SW1,5*%
%TO.N,Net-(SW1-Pad5)*%
X131937500Y-75700000D03*
%TO.P,SW1,6*%
%TO.N,Net-(SW1-Pad6)*%
X131937500Y-73160000D03*
%TD*%
D18*
%TO.P,C3,1*%
%TO.N,VCC*%
X118402500Y-89916000D03*
%TO.P,C3,2*%
%TO.N,GND*%
X115277500Y-89916000D03*
%TD*%
D20*
%TO.P,C10,1*%
%TO.N,Net-(C10-Pad1)*%
X138008500Y-101346000D03*
%TO.P,C10,2*%
%TO.N,Net-(C10-Pad2)*%
X140883500Y-101346000D03*
%TD*%
D23*
%TO.N,Net-(C4-Pad2)*%
X122174000Y-88646000D03*
X122174000Y-93726000D03*
%TO.N,Net-(R1-Pad1)*%
X127254000Y-83566000D03*
X131685000Y-83679000D03*
%TO.N,GND*%
X137160000Y-83312000D03*
X113538000Y-89916000D03*
X113284000Y-107950000D03*
X113538000Y-96012000D03*
X142695000Y-94795000D03*
X126220000Y-95740000D03*
X133604000Y-95758000D03*
X142748000Y-90678000D03*
X122575000Y-107803000D03*
X120650000Y-91821000D03*
X130156000Y-91840000D03*
%TD*%
D24*
%TO.N,Net-(C12-Pad1)*%
X134048000Y-93790000D02*
X134874000Y-92964000D01*
X131685000Y-93790000D02*
X134048000Y-93790000D01*
X147770000Y-90228000D02*
X147770000Y-86067500D01*
X145161000Y-92837000D02*
X145161000Y-93625000D01*
X145161000Y-93625000D02*
X146278000Y-94742000D01*
X137160000Y-90678000D02*
X138137500Y-90678000D01*
X145034000Y-92964000D02*
X145161000Y-92837000D01*
X145161000Y-92837000D02*
X147770000Y-90228000D01*
X134874000Y-92964000D02*
X137160000Y-90678000D01*
X134874000Y-92964000D02*
X145034000Y-92964000D01*
%TO.N,Net-(C13-Pad1)*%
X138057500Y-95385500D02*
X138057500Y-94795000D01*
X138057500Y-94795000D02*
X134419000Y-94795000D01*
X151892000Y-94742000D02*
X152146000Y-94996000D01*
X140208000Y-97536000D02*
X138057500Y-95385500D01*
X152146000Y-94996000D02*
X149606000Y-97536000D01*
X152146000Y-75946000D02*
X152146000Y-94996000D01*
X149378000Y-94742000D02*
X151892000Y-94742000D01*
X134419000Y-94795000D02*
X134064000Y-94440000D01*
X147770000Y-74192500D02*
X150392500Y-74192500D01*
X150392500Y-74192500D02*
X152146000Y-75946000D01*
X149606000Y-97536000D02*
X140208000Y-97536000D01*
X134064000Y-94440000D02*
X131685000Y-94440000D01*
%TO.N,Net-(J2-Pad3)*%
X104700000Y-69355000D02*
X108217000Y-69355000D01*
X112014000Y-83924000D02*
X115060000Y-86970000D01*
X112014000Y-73152000D02*
X112014000Y-83924000D01*
X108217000Y-69355000D02*
X112014000Y-73152000D01*
%TO.N,Net-(R7-Pad2)*%
X121080000Y-89890000D02*
X118160000Y-86970000D01*
X124485000Y-89890000D02*
X121080000Y-89890000D01*
%TO.N,Net-(J2-Pad4)*%
X104700000Y-66855000D02*
X106987000Y-66855000D01*
X106987000Y-66855000D02*
X112522000Y-72390000D01*
X115060000Y-79440000D02*
X115060000Y-83200000D01*
X114238000Y-79440000D02*
X115060000Y-79440000D01*
X112522000Y-72390000D02*
X112522000Y-77724000D01*
X112522000Y-77724000D02*
X114238000Y-79440000D01*
%TO.N,Net-(R6-Pad2)*%
X124485000Y-89240000D02*
X124485000Y-85765000D01*
X124485000Y-85765000D02*
X118160000Y-79440000D01*
%TO.N,Net-(C4-Pad2)*%
X129820000Y-89890000D02*
X125920000Y-93790000D01*
X125920000Y-93790000D02*
X124485000Y-93790000D01*
X119014000Y-83200000D02*
X122174000Y-86360000D01*
X134874000Y-87630000D02*
X132614000Y-89890000D01*
X122174000Y-86360000D02*
X122174000Y-88646000D01*
X131685000Y-89890000D02*
X129820000Y-89890000D01*
X122936000Y-93726000D02*
X122174000Y-93726000D01*
X124485000Y-94440000D02*
X124485000Y-93790000D01*
X123000000Y-93790000D02*
X122936000Y-93726000D01*
X124485000Y-93790000D02*
X123000000Y-93790000D01*
X134874000Y-86398500D02*
X134874000Y-87630000D01*
X118160000Y-83200000D02*
X119014000Y-83200000D01*
D25*
%TO.N,Net-(J2-Pad2)*%
X110744000Y-73914000D02*
X108685000Y-71855000D01*
X115266000Y-92710000D02*
X112776000Y-92710000D01*
X112776000Y-92710000D02*
X110744000Y-90678000D01*
X110744000Y-90678000D02*
X110744000Y-73914000D01*
X108685000Y-71855000D02*
X104700000Y-71855000D01*
%TO.N,VCC*%
X118402500Y-89916000D02*
X118402500Y-92673500D01*
D26*
X120512000Y-90540000D02*
X119888000Y-89916000D01*
X119888000Y-89916000D02*
X118402500Y-89916000D01*
X124485000Y-90540000D02*
X120512000Y-90540000D01*
D24*
X118402500Y-92673500D02*
X118366000Y-92710000D01*
%TO.N,Net-(R1-Pad1)*%
X115060000Y-65140000D02*
X115060000Y-69585000D01*
X115824000Y-77216000D02*
X119380000Y-77216000D01*
X127000000Y-83566000D02*
X127254000Y-83566000D01*
X115062000Y-74192000D02*
X115062000Y-76454000D01*
X115062000Y-76454000D02*
X115824000Y-77216000D01*
X119380000Y-77216000D02*
X125730000Y-83566000D01*
X131685000Y-89240000D02*
X131685000Y-83679000D01*
X115060000Y-74190000D02*
X115062000Y-74192000D01*
X115060000Y-74190000D02*
X115060000Y-69585000D01*
X125730000Y-83566000D02*
X127000000Y-83566000D01*
%TO.N,Net-(R3-Pad2)*%
X118160000Y-74190000D02*
X122210000Y-78240000D01*
X122210000Y-78240000D02*
X124317500Y-78240000D01*
%TO.N,Net-(R2-Pad2)*%
X118202500Y-69585000D02*
X124317500Y-75700000D01*
X118160000Y-69585000D02*
X118202500Y-69585000D01*
%TO.N,Net-(R1-Pad2)*%
X124317500Y-71297500D02*
X124317500Y-73160000D01*
X118160000Y-65140000D02*
X124317500Y-71297500D01*
%TO.N,GND*%
X136944500Y-83273500D02*
X136906000Y-83312000D01*
X124485000Y-91190000D02*
X121281000Y-91190000D01*
X134874000Y-83273500D02*
X136867500Y-83273500D01*
X141262500Y-90678000D02*
X142748000Y-90678000D01*
X133586000Y-95740000D02*
X133604000Y-95758000D01*
X131685000Y-91840000D02*
X130156000Y-91840000D01*
X130224000Y-93140000D02*
X130224000Y-91908000D01*
X120713500Y-91757500D02*
X120650000Y-91821000D01*
X124485000Y-95740000D02*
X126220000Y-95740000D01*
X124098500Y-107803000D02*
X122575000Y-107803000D01*
X130164000Y-90540000D02*
X130156000Y-90548000D01*
X113404000Y-108070000D02*
X113284000Y-107950000D01*
X136867500Y-83273500D02*
X136906000Y-83312000D01*
X130156000Y-90548000D02*
X130156000Y-91840000D01*
X141182500Y-94795000D02*
X142695000Y-94795000D01*
X131685000Y-90540000D02*
X130164000Y-90540000D01*
X131685000Y-95740000D02*
X133586000Y-95740000D01*
X115217500Y-108070000D02*
X113404000Y-108070000D01*
D25*
X115277500Y-89916000D02*
X113538000Y-89916000D01*
D24*
X115402500Y-96012000D02*
X113538000Y-96012000D01*
X124098500Y-103993000D02*
X124098500Y-107803000D01*
X121281000Y-91190000D02*
X120713500Y-91757500D01*
X130224000Y-91908000D02*
X130156000Y-91840000D01*
X139954000Y-83273500D02*
X136944500Y-83273500D01*
X131685000Y-93140000D02*
X130224000Y-93140000D01*
%TO.N,Net-(SW1-Pad6)*%
X131937500Y-73160000D02*
X128905000Y-76192500D01*
X127635000Y-86995000D02*
X127635000Y-89789000D01*
X128905000Y-76192500D02*
X128905000Y-85725000D01*
X128905000Y-85725000D02*
X127635000Y-86995000D01*
X125368000Y-91840000D02*
X124485000Y-91840000D01*
X127635000Y-89789000D02*
X125476000Y-91948000D01*
X125476000Y-91948000D02*
X125368000Y-91840000D01*
%TO.N,Net-(SW1-Pad5)*%
X129540000Y-86360000D02*
X128270000Y-87630000D01*
X131937500Y-75700000D02*
X130675000Y-75700000D01*
X130675000Y-75700000D02*
X129540000Y-76835000D01*
X128270000Y-89805000D02*
X125585000Y-92490000D01*
X128270000Y-87630000D02*
X128270000Y-89805000D01*
X129540000Y-76835000D02*
X129540000Y-86360000D01*
X125585000Y-92490000D02*
X124485000Y-92490000D01*
%TO.N,Net-(SW1-Pad4)*%
X130810000Y-78105000D02*
X130175000Y-78740000D01*
X128905698Y-89805698D02*
X125493396Y-93218000D01*
X125493396Y-93218000D02*
X124563000Y-93218000D01*
X124563000Y-93218000D02*
X124485000Y-93140000D01*
X130175000Y-78740000D02*
X130175000Y-80007208D01*
X130175000Y-80007208D02*
X130176396Y-80008604D01*
X124485000Y-93140000D02*
X124585000Y-93240000D01*
X130176396Y-80008604D02*
X130176396Y-86360000D01*
X130176396Y-86360000D02*
X128905698Y-87630698D01*
X128905698Y-87630698D02*
X128905698Y-89805698D01*
X130945000Y-78240000D02*
X130810000Y-78105000D01*
X131937500Y-78240000D02*
X130945000Y-78240000D01*
%TO.N,Net-(C5-Pad1)*%
X120396000Y-96012000D02*
X118277500Y-96012000D01*
X121318000Y-95090000D02*
X120396000Y-96012000D01*
X124485000Y-95090000D02*
X121318000Y-95090000D01*
%TO.N,Net-(C1-Pad1)*%
X121347500Y-96390000D02*
X124485000Y-96390000D01*
X118087500Y-99650000D02*
X121347500Y-96390000D01*
%TO.N,Net-(C2-Pad1)*%
X123190000Y-97210000D02*
X123360000Y-97040000D01*
X123190000Y-97155000D02*
X123190000Y-97210000D01*
X118092500Y-102252500D02*
X123190000Y-97155000D01*
X123360000Y-97040000D02*
X124485000Y-97040000D01*
X118092500Y-103875000D02*
X118092500Y-102252500D01*
%TO.N,Net-(C6-Pad1)*%
X121412000Y-104648000D02*
X121412000Y-100763000D01*
X118092500Y-107967500D02*
X121412000Y-104648000D01*
X118092500Y-108070000D02*
X118092500Y-107967500D01*
X121412000Y-100763000D02*
X124485000Y-97690000D01*
%TO.N,Net-(C11-Pad1)*%
X133250000Y-97690000D02*
X131685000Y-97690000D01*
X138008500Y-103886000D02*
X137160000Y-103886000D01*
X137160000Y-103886000D02*
X134874000Y-101600000D01*
X134874000Y-101600000D02*
X134874000Y-99314000D01*
X134874000Y-99314000D02*
X133250000Y-97690000D01*
%TO.N,Net-(C10-Pad1)*%
X137668000Y-101346000D02*
X138008500Y-101346000D01*
X131685000Y-97040000D02*
X133362000Y-97040000D01*
X133362000Y-97040000D02*
X137668000Y-101346000D01*
%TO.N,Net-(C7-Pad1)*%
X130048000Y-104978500D02*
X127223500Y-107803000D01*
X130686000Y-96390000D02*
X130048000Y-97028000D01*
X130048000Y-97028000D02*
X130048000Y-104978500D01*
X131685000Y-96390000D02*
X130686000Y-96390000D01*
%TO.N,Net-(C8-Pad1)*%
X129286000Y-96520000D02*
X129286000Y-101930500D01*
X129286000Y-101930500D02*
X127223500Y-103993000D01*
X130716000Y-95090000D02*
X129286000Y-96520000D01*
X131685000Y-95090000D02*
X130716000Y-95090000D01*
%TO.N,Net-(C9-Pad1)*%
X131685000Y-92490000D02*
X133570000Y-92490000D01*
X133570000Y-92490000D02*
X139954000Y-86106000D01*
X139954000Y-86106000D02*
X139954000Y-86398500D01*
%TO.N,Net-(C2-Pad2)*%
X105225000Y-103665000D02*
X115007500Y-103665000D01*
X115007500Y-103665000D02*
X115217500Y-103875000D01*
%TO.N,Net-(C1-Pad2)*%
X113697500Y-101165000D02*
X115212500Y-99650000D01*
X105225000Y-101165000D02*
X113697500Y-101165000D01*
%TO.N,Net-(C11-Pad2)*%
X141062500Y-104065000D02*
X140883500Y-103886000D01*
X146907500Y-104065000D02*
X141062500Y-104065000D01*
%TO.N,Net-(C10-Pad2)*%
X143248500Y-101346000D02*
X143467500Y-101565000D01*
X140883500Y-101346000D02*
X143248500Y-101346000D01*
X146907500Y-101565000D02*
X143467500Y-101565000D01*
%TD*%
M02*
