M48
INCH,TZ
T1C0.0157
T2C0.0315
T3C0.0374
%
G90
G05
T1
X44600Y-42500
X44700Y-35400
X44700Y-37800
X47500Y-36150
X48100Y-34900
X48100Y-36900
X48258Y-42442
X49693Y-37693
X50100Y-32900
X51243Y-36157
X51844Y-32944
X52600Y-37700
X54000Y-32800
X56179Y-37321
X56200Y-35700
T2
X48944Y-28803
X48944Y-29803
X48944Y-30803
X51944Y-28803
X51944Y-29803
X51944Y-30803
T3
X41220Y-26321
X41220Y-27305
X41220Y-28289
X41220Y-29274
X41427Y-39829
X41427Y-40813
X41427Y-41797
X57838Y-39986
X57838Y-40970
X57838Y-41955
T0
M30
